<?xml version="1.0" encoding="UTF-8" standalone="no"?> <svg xmlns="http://www.w3.org/2000/svg" viewBox="0 0 64 64"><g id="Layer_31" data-name="Layer 31"><path d="M57.31,20.88H54.8L40.18,6.23a2.87,2.87,0,1,0-4.07,4.06L46.7,20.88H17.3L27.89,10.29a2.87,2.87,0,0,0-4.07-4.06L9.2,20.88H6.69a3.69,3.69,0,1,0,0,7.37h.06l5.3,26.35a4.67,4.67,0,0,0,4.37,4H47.58a4.67,4.67,0,0,0,4.37-4l5.3-26.35h.06a3.6,3.6,0,0,0,2.6-1.08,3.68,3.68,0,0,0-2.6-6.29ZM50,54.2a2.72,2.72,0,0,1-2.41,2.42H16.42A2.72,2.72,0,0,1,14,54.2L8.79,28.25H55.21ZM37.53,7.64a.88.88,0,0,1,1.24,0L53.24,22.11a.88.88,0,0,1,0,1.24.9.9,0,0,1-1.24,0L37.53,8.88A.88.88,0,0,1,37.53,7.64ZM10.76,22.11,25.23,7.64a.88.88,0,0,1,1.24,1.24L12,23.35a.9.9,0,0,1-1.24,0A.88.88,0,0,1,10.76,22.11ZM58.5,25.76a1.67,1.67,0,0,1-1.19.49H6.69A1.69,1.69,0,0,1,5.5,23.36a1.66,1.66,0,0,1,1.19-.48H8.52a2.89,2.89,0,0,0,.83,1.88,2.81,2.81,0,0,0,2,.84,2.85,2.85,0,0,0,2-.84l1.88-1.88H48.7l1.88,1.88a2.85,2.85,0,0,0,2,.84,2.81,2.81,0,0,0,2-.84,2.89,2.89,0,0,0,.83-1.88h1.83A1.69,1.69,0,0,1,59,24.56,1.71,1.71,0,0,1,58.5,25.76Z"/><path d="M19.07,49.37a1,1,0,0,0,1-1V35.3a1,1,0,0,0-2,0V48.37A1,1,0,0,0,19.07,49.37Z"/><path d="M25.54,49.37a1,1,0,0,0,1-1V35.3a1,1,0,0,0-2,0V48.37A1,1,0,0,0,25.54,49.37Z"/><path d="M32,49.37a1,1,0,0,0,1-1V35.3a1,1,0,0,0-2,0V48.37A1,1,0,0,0,32,49.37Z"/><path d="M38.46,49.37a1,1,0,0,0,1-1V35.3a1,1,0,0,0-2,0V48.37A1,1,0,0,0,38.46,49.37Z"/><path d="M44.93,49.37a1,1,0,0,0,1-1V35.3a1,1,0,0,0-2,0V48.37A1,1,0,0,0,44.93,49.37Z"/></g></svg>